<mxfile host="app.diagrams.net" modified="2024-02-21T14:37:32.341Z" agent="Mozilla/5.0 (Macintosh; Intel Mac OS X 10_15_7) AppleWebKit/537.36 (KHTML, like Gecko) Chrome/121.0.0.0 Safari/537.36" version="23.1.5" etag="tdFHjwqd2vram5xDZFqE" type="github">
  <diagram name="페이지-1" id="qIiJHYuhcOEHOlVdG9pj">
    <mxGraphModel>
      <root>
        <mxCell id="0" />
        <mxCell id="1" parent="0" />
      </root>
    </mxGraphModel>
  </diagram>
</mxfile>
